<mxfile host="app.diagrams.net" agent="Mozilla/5.0 (X11; Linux x86_64; rv:128.0) Gecko/20100101 Firefox/128.0" version="27.2.0">
  <diagram name="Page-1" id="vLRhv0532YuuRv_kM_5Z">
    <mxGraphModel dx="1426" dy="649" grid="1" gridSize="10" guides="1" tooltips="1" connect="1" arrows="1" fold="1" page="1" pageScale="1" pageWidth="850" pageHeight="1100" background="#ffffff" math="0" shadow="0">
      <root>
        <mxCell id="0" />
        <mxCell id="1" parent="0" />
        <mxCell id="nF7LipzBdnQntdB6icCR-9" value="" style="group" vertex="1" connectable="0" parent="1">
          <mxGeometry x="40" y="160" width="680" height="80" as="geometry" />
        </mxCell>
        <mxCell id="nF7LipzBdnQntdB6icCR-1" value="&lt;div&gt;0:1&lt;/div&gt;" style="rounded=0;whiteSpace=wrap;html=1;" vertex="1" parent="nF7LipzBdnQntdB6icCR-9">
          <mxGeometry width="120" height="80" as="geometry" />
        </mxCell>
        <mxCell id="nF7LipzBdnQntdB6icCR-2" value="&lt;div&gt;2:9&lt;/div&gt;" style="rounded=0;whiteSpace=wrap;html=1;" vertex="1" parent="nF7LipzBdnQntdB6icCR-9">
          <mxGeometry x="120" width="160" height="80" as="geometry" />
        </mxCell>
        <mxCell id="nF7LipzBdnQntdB6icCR-3" value="10:10+SZ_MD-1" style="rounded=0;whiteSpace=wrap;html=1;" vertex="1" parent="nF7LipzBdnQntdB6icCR-9">
          <mxGeometry x="280" width="200" height="80" as="geometry" />
        </mxCell>
        <mxCell id="nF7LipzBdnQntdB6icCR-4" value="10+SZ_MD:10+SZ_MD+SZ_DAT-1" style="rounded=0;whiteSpace=wrap;html=1;" vertex="1" parent="nF7LipzBdnQntdB6icCR-9">
          <mxGeometry x="480" width="200" height="80" as="geometry" />
        </mxCell>
      </root>
    </mxGraphModel>
  </diagram>
</mxfile>
